<?xml version="1.0" encoding="UTF-8" standalone="no"?>
<svg
   xmlns:dc="http://purl.org/dc/elements/1.1/"
   xmlns:cc="http://creativecommons.org/ns#"
   xmlns:rdf="http://www.w3.org/1999/02/22-rdf-syntax-ns#"
   xmlns:svg="http://www.w3.org/2000/svg"
   xmlns="http://www.w3.org/2000/svg"
   xmlns:sodipodi="http://sodipodi.sourceforge.net/DTD/sodipodi-0.dtd"
   xmlns:inkscape="http://www.inkscape.org/namespaces/inkscape"
   width="240mm"
   height="120mm"
   viewBox="0 0 240 120"
   version="1.1"
   id="svg8"
   inkscape:version="1.0.1 (1.0.1+r73)"
   sodipodi:docname="1.svg">
  <defs
     id="defs2">
    <inkscape:path-effect
       effect="knot"
       id="path-effect1174"
       is_visible="true"
       lpeversion="1"
       switcher_size="3"
       interruption_width="3"
       prop_to_stroke_width="true"
       add_stroke_width="inkscape_1.0_and_up"
       both="false"
       inverse_width="false"
       add_other_stroke_width="inkscape_1.0_and_up"
       crossing_points_vector="216.58624 | 219.80606 | 0 | 2 | 0 | 3 | 0.068130154 | 2.1770819 | -1 | 175.18909 | 233.60736 | 0 | 2 | 1 | 2 | 2.3627595 | 0.17913708 | 1 | 175.13885 | 233.5941 | 0 | 5 | 2 | 3 | 2.3666896 | 2.9664759 | -1 | 173.52554 | 219.8194 | 0 | 5 | 3 | 2 | 3.9307624 | 2.1790455 | -1 | 153.91097 | 206.16859 | 1 | 4 | 0 | 6 | 3.4972025e-15 | 7 | 0 | 173.47486 | 219.80606 | 1 | 5 | 1 | 1 | 3.0681301 | 2.1770819 | -1 | 132.0777 | 233.60736 | 1 | 4 | 2 | 4 | 5.3627595 | 5.0837791 | 1 | 149.16254 | 214.9772 | 1 | 4 | 3 | 5 | 8.4709665 | 6.5233435 | -1 | 155.28635 | 221.2071 | 1 | 5 | 4 | 0 | 9 | 3.5936034e-13 | 0 | 174.33006 | 234.43514 | 2 | 5 | 0 | 5 | 1.4958323e-08 | 3 | -1 | 174.33019 | 234.43501 | 2 | 5 | 1 | 4 | 2.8045172e-05 | 2.9999948 | 1 | 216.58625 | 235.25872 | 2 | 6 | 4 | 2 | 3.1310555 | 2.1770822 | -1 | 209.61985 | 240.48532 | 2 | 7 | 5 | 0 | 4 | 1.7074409e-13 | 0 | 210.43659 | 255.42142 | 3 | 6 | 0 | 3 | 4.6881665e-12 | 4 | 0 | 205.40236 | 250.16106 | 3 | 7 | 1 | 1 | 0.51681362 | 0.47905471 | -1 | 175.18909 | 249.06002 | 3 | 6 | 2 | 1 | 2.3627595 | 0.15673421 | 0 | 175.13879 | 249.04674 | 3 | 8 | 3 | 3 | 2.3666946 | 6.9664752 | -1 | 174.33006 | 234.43514 | 3 | 4 | 7 | 0 | 4 | 0 | -1 | 172.96548 | 235.72261 | 3 | 4 | 4 | 2 | 3.8872316 | 0.21746062 | 0 | 174.33006 | 234.43514 | 3 | 5 | 6 | 0 | 4 | 3 | -1 | 173.43878 | 235.24934 | 3 | 8 | 5 | 1 | 3.9285199 | 6.1756893 | 1 | 174.33006 | 234.43514 | 4 | 5 | 0 | 6 | 0 | 3 | -1 | 173.47492 | 235.25874 | 4 | 8 | 1 | 2 | 0.13882392 | 6.1770844 | 0 | 132.07771 | 249.06002 | 4 | 8 | 3 | 0 | 3.3627591 | 5.0329918 | 1 | 174.33006 | 249.8878 | 6 | 7 | 0 | 2 | 2.5285329e-13 | 4 | -1" />
    <inkscape:path-effect
       effect="knot"
       id="path-effect1117"
       is_visible="true"
       lpeversion="1"
       switcher_size="3"
       interruption_width="3"
       prop_to_stroke_width="true"
       add_stroke_width="inkscape_1.0_and_up"
       both="false"
       inverse_width="false"
       add_other_stroke_width="inkscape_1.0_and_up"
       crossing_points_vector="165.5252 | 232.45555 | 0 | 1 | 1 | 1 | 0.84268337 | 1.1979043 | -1 | 162.31598 | 232.45555 | 0 | 2 | 0 | 1 | 0.70112739 | 1.4110444 | -1 | 146.4207 | 244.7575 | 0 | 1 | 2 | 2 | 3.1979038 | 2.8426834 | -1 | 146.4207 | 241.48851 | 0 | 2 | 3 | 2 | 3.4110444 | 2.7011277 | -1 | 162.31598 | 229.42024 | 1 | 2 | 0 | 0 | 0.85844401 | 1.2131399 | -1 | 142.85417 | 241.48851 | 1 | 2 | 3 | 3 | 3.2131404 | 2.8584444 | -1" />
    <inkscape:path-effect
       effect="knot"
       id="path-effect1078"
       is_visible="true"
       lpeversion="1"
       switcher_size="15"
       interruption_width="3"
       prop_to_stroke_width="true"
       add_stroke_width="inkscape_1.0_and_up"
       both="false"
       inverse_width="false"
       add_other_stroke_width="inkscape_1.0_and_up"
       crossing_points_vector="90.423995 | 247.01943 | 0 | 2 | 1 | 1 | 0.51535027 | 0.48245591 | 1 | 94.559786 | 252.88536 | 0 | 2 | 0 | 4 | 3.8281976e-12 | 7 | 0 | 61.155988 | 245.38487 | 0 | 2 | 2 | 2 | 2.3627595 | 4.0329918 | 1 | 61.105682 | 245.37159 | 0 | 3 | 3 | 3 | 2.3666946 | 5.9664752 | -1 | 59.492443 | 231.59691 | 0 | 3 | 4 | 2 | 3.9307621 | 5.1790461 | 1 | 93.992876 | 237.76424 | 0 | 2 | 6 | 0 | 7 | 0 | 0 | 102.55314 | 231.58357 | 0 | 2 | 5 | 3 | 6.111946 | 5.1770822 | -1 | 59.441754 | 231.58357 | 1 | 3 | 0 | 1 | 0.068130261 | 5.1770821 | 1 | 18.044608 | 245.38487 | 1 | 3 | 1 | 0 | 2.3627595 | 4.0329918 | 1" />
  </defs>
  <sodipodi:namedview
     id="base"
     pagecolor="#ffffff"
     bordercolor="#666666"
     borderopacity="1.0"
     inkscape:pageopacity="0.0"
     inkscape:pageshadow="2"
     inkscape:zoom="0.70312851"
     inkscape:cx="414.14689"
     inkscape:cy="259.34404"
     inkscape:document-units="mm"
     inkscape:current-layer="layer1"
     showgrid="false"
     showborder="true"
     width="200mm"
     showguides="true"
     inkscape:guide-bbox="true"
     inkscape:window-width="1430"
     inkscape:window-height="785"
     inkscape:window-x="4"
     inkscape:window-y="4"
     inkscape:window-maximized="1"
     inkscape:document-rotation="0"
     inkscape:snap-global="true"
     inkscape:snap-bbox="false"
     inkscape:bbox-nodes="true"
     inkscape:bbox-paths="true"
     inkscape:snap-bbox-edge-midpoints="true"
     inkscape:snap-bbox-midpoints="true">
    <inkscape:grid
       type="xygrid"
       id="grid815"
       units="mm"
       spacingx="10"
       spacingy="10"
       empspacing="4"
       dotted="false" />
  </sodipodi:namedview>
  <metadata
     id="metadata5">
    <rdf:RDF>
      <cc:Work
         rdf:about="">
        <dc:format>image/svg+xml</dc:format>
        <dc:type
           rdf:resource="http://purl.org/dc/dcmitype/StillImage" />
        <dc:title />
      </cc:Work>
    </rdf:RDF>
  </metadata>
  <g
     inkscape:label="Layer 1"
     inkscape:groupmode="layer"
     id="layer1"
     transform="translate(0, -177)">
    <path
       style="fill:none;fill-opacity:1;stroke:#000000;stroke-width:0.421322;stroke-linecap:butt;stroke-linejoin:miter;stroke-dasharray:none;stroke-opacity:1;marker-start:none;marker-end:none"
       d="m 245.03556,243.207 h 43.11138"
       id="path20" />
    <path
       style="fill:none;fill-opacity:1;stroke:#000000;stroke-width:0.421322;stroke-linecap:butt;stroke-linejoin:miter;stroke-dasharray:none;stroke-opacity:1;marker-start:none;marker-end:none"
       d="M 275.51991,212.72266 245.03556,243.207"
       id="path20-3" />
    <path
       style="fill:none;fill-opacity:1;stroke:#000000;stroke-width:0.421322;stroke-linecap:butt;stroke-linejoin:miter;stroke-dasharray:none;stroke-opacity:1;marker-start:none;marker-end:none"
       d="M 318.63129,212.72266 288.14694,243.207"
       id="path20-3-6" />
    <path
       style="fill:none;fill-opacity:1;stroke:#000000;stroke-width:0.421322;stroke-linecap:butt;stroke-linejoin:miter;stroke-dasharray:none;stroke-opacity:1;marker-start:none;marker-end:none"
       d="m 275.51991,212.72266 h 43.11138"
       id="path20-7" />
    <path
       style="fill:none;fill-opacity:1;stroke:#000000;stroke-width:0.421322;stroke-linecap:butt;stroke-linejoin:miter;stroke-dasharray:none;stroke-opacity:1;marker-start:none;marker-end:none"
       d="M 49.171413,165.45414 79.655761,134.9698 h 43.111379 l -30.484349,30.48434 z"
       id="path93" />
    <path
       id="path8-5"
       style="fill:none;fill-opacity:1;stroke:#000000;stroke-width:0.421322;stroke-dasharray:none;stroke-opacity:1;marker-start:none;marker-end:none"
       d="m 100.02702,264.89287 c -4.042408,4.042 -10.190408,7.919 -17.091308,10.778 -6.901,2.858 -13.9896,4.464 -19.7065,4.464 -5.71689,0 -9.59379,-1.606 -10.77789,-4.464 -1.184,-2.859 0.4219,-6.736 4.4644,-10.778 8.41799,-8.418 24.89299,-15.242 36.79779,-15.242 11.904908,0 14.731608,6.824 6.313508,15.242 z m -43.111378,0 c -4.0424,4.042 -10.1904,7.919 -17.0913,10.778 -6.901004,2.858 -13.989604,4.464 -19.706504,4.464 -5.7169,0 -9.5938,-1.606 -10.7779,-4.464 -1.184,-2.859 0.4219,-6.736 4.4644,-10.778 8.418,-8.418 24.893004,-15.242 36.797804,-15.242 11.90489,0 14.73159,6.824 6.3135,15.242 z" />
    <path
       style="fill:none;fill-opacity:1;stroke:#000000;stroke-width:0.421322;stroke-linecap:butt;stroke-linejoin:miter;stroke-dasharray:none;stroke-opacity:1;marker-start:none;marker-end:none"
       d="M 92.282793,165.45414 122.76714,134.9698 h 43.11138 l -30.48435,30.48434 z"
       id="path93-3" />
    <path
       style="color:#000000;font-style:normal;font-variant:normal;font-weight:normal;font-stretch:normal;font-size:medium;line-height:normal;font-family:sans-serif;font-variant-ligatures:normal;font-variant-position:normal;font-variant-caps:normal;font-variant-numeric:normal;font-variant-alternates:normal;font-variant-east-asian:normal;font-feature-settings:normal;font-variation-settings:normal;text-indent:0;text-align:start;text-decoration:none;text-decoration-line:none;text-decoration-style:solid;text-decoration-color:#000000;letter-spacing:normal;word-spacing:normal;text-transform:none;writing-mode:lr-tb;direction:ltr;text-orientation:mixed;dominant-baseline:auto;baseline-shift:baseline;text-anchor:start;white-space:normal;shape-padding:0;shape-margin:0;inline-size:0;clip-rule:nonzero;display:inline;overflow:visible;visibility:visible;opacity:1;isolation:auto;mix-blend-mode:normal;color-interpolation:sRGB;color-interpolation-filters:linearRGB;solid-color:#000000;solid-opacity:1;vector-effect:none;fill:#000000;fill-opacity:1;fill-rule:nonzero;stroke:none;stroke-width:0.421322;stroke-linecap:butt;stroke-linejoin:miter;stroke-miterlimit:4;stroke-dasharray:none;stroke-dashoffset:0;stroke-opacity:1;color-rendering:auto;image-rendering:auto;shape-rendering:auto;text-rendering:auto;enable-background:accumulate;stop-color:#000000;stop-opacity:1"
       d="m 51.998092,184.73256 c -11.985303,0 -28.470386,6.82976 -36.945313,15.30469 -2.035201,2.03495 -3.464667,4.03272 -4.238281,5.90039 -0.773613,1.86767 -0.8892458,3.61571 -0.271484,5.10742 0.617827,1.49122 1.935097,2.6444 3.802734,3.41797 1.867637,0.77357 4.291746,1.17578 7.169922,1.17578 5.756353,0 12.864769,-1.61363 19.787109,-4.48047 5.830855,-2.41568 11.026986,-5.57805 14.984375,-8.93945 -1.014297,1.27349 -1.867773,2.52721 -2.361328,3.71875 -0.773616,1.86767 -0.889246,3.61571 -0.271484,5.10742 0.617827,1.49122 1.935097,2.6444 3.802734,3.41797 1.867638,0.77357 4.291746,1.17578 7.169922,1.17578 5.756353,0 12.864769,-1.61363 19.78711,-4.48047 0.227219,-0.0941 0.438374,-0.0582 0.705078,0.11328 0.266704,0.17146 0.56351,0.48744 0.865234,0.91016 0.603448,0.84545 1.231288,2.10673 1.855469,3.45703 l 0.382812,-0.17578 c -0.627257,-1.35695 -1.258686,-2.63377 -1.896484,-3.52734 -0.318899,-0.44679 -0.638604,-0.79976 -0.980469,-1.01954 -0.341865,-0.21978 -0.73079,-0.29685 -1.09375,-0.14648 -6.879659,2.84916 -13.947553,4.44727 -19.625,4.44727 -2.838723,0 -5.213703,-0.40061 -7.009766,-1.14454 -1.796062,-0.74392 -3.007946,-1.82267 -3.574218,-3.18945 -0.566238,-1.36729 -0.47248,-2.98712 0.271484,-4.7832 0.743964,-1.79608 2.139186,-3.75858 4.146484,-5.76563 8.361064,-8.36107 24.826094,-15.17968 36.650391,-15.17968 2.956099,0 5.338127,0.42587 7.109377,1.18164 1.77124,0.75577 2.92614,1.83297 3.47265,3.15234 0.54652,1.31937 0.49148,2.89869 -0.22656,4.68555 -0.71804,1.78685 -2.10111,3.77301 -4.1914,5.86328 -2.443228,2.44298 -5.670928,4.83273 -9.373051,6.9707 l 0.08203,0.14063 -0.08398,-0.14063 c -0.384924,0.22796 -0.701702,0.6814 -1.019532,1.29492 -0.317829,0.61353 -0.628114,1.39422 -0.935546,2.28907 -0.614866,1.7897 -1.219947,4.03478 -1.837891,6.26757 -0.617944,2.23279 -1.248158,4.45417 -1.900391,6.18164 -0.326116,0.86374 -0.658568,1.60244 -0.992187,2.1543 -0.333619,0.55186 -0.672403,0.907 -0.962891,1.02735 -6.879659,2.84916 -13.947553,4.44726 -19.625,4.44726 -2.838723,0 -5.213703,-0.4006 -7.009766,-1.14453 -1.796062,-0.74393 -3.007946,-1.82267 -3.574218,-3.18945 -0.566238,-1.3673 -0.472477,-2.98908 0.271484,-4.78516 0.743961,-1.79608 2.139186,-3.75662 4.146484,-5.76367 0.104755,-0.10476 0.211094,-0.20824 0.31836,-0.3125 l -0.0039,-0.006 c 6.35e-4,-6.6e-4 0.0013,-0.001 0.002,-0.002 l -0.08789,-0.0859 -0.203125,-0.20899 c -0.002,0.002 -0.0039,0.004 -0.0059,0.006 l -0.0059,-0.004 c -0.102143,0.10519 -0.204794,0.21065 -0.310546,0.3164 -4.014509,4.01411 -10.143879,7.88227 -17.023438,10.73243 -6.879659,2.84916 -13.947553,4.44726 -19.625,4.44726 -2.838724,0 -5.213703,-0.4006 -7.009766,-1.14453 -1.796062,-0.74393 -3.007946,-1.82267 -3.574218,-3.18945 -0.566239,-1.3673 -0.472477,-2.98908 0.271484,-4.78516 0.743961,-1.79608 2.139186,-3.75662 4.146484,-5.76367 0.104755,-0.10476 0.211094,-0.20824 0.31836,-0.3125 l -0.292969,-0.30274 c -0.108681,0.10564 -0.216084,0.21218 -0.322266,0.31836 -2.035201,2.03495 -3.464667,4.03272 -4.238281,5.90039 -0.773613,1.86767 -0.8892458,3.61377 -0.271484,5.10547 0.617827,1.49122 1.935097,2.6444 3.802734,3.41797 1.867637,0.77357 4.291746,1.17774 7.169922,1.17774 5.756353,0 12.864769,-1.61363 19.787109,-4.48047 5.779934,-2.39459 10.952503,-5.51123 14.898438,-8.83985 -0.974813,1.2387 -1.794749,2.45877 -2.275391,3.61914 -0.773614,1.86767 -0.889246,3.61377 -0.271484,5.10547 0.617827,1.49122 1.935097,2.6444 3.802734,3.41797 1.867638,0.77357 4.291746,1.17774 7.169922,1.17774 5.756353,0 12.864769,-1.61363 19.78711,-4.48047 0.438529,-0.18168 0.806515,-0.60906 1.162109,-1.19727 0.355594,-0.58821 0.694037,-1.347 1.025391,-2.22461 0.662706,-1.75522 1.29177,-3.98436 1.910156,-6.21875 0.618386,-2.23438 1.224692,-4.47439 1.832031,-6.24219 0.30367,-0.88389 0.608324,-1.64977 0.910156,-2.23242 0.301249,-0.58152 0.608284,-0.97353 0.859375,-1.12304 4.86e-4,-2.9e-4 0.0015,-0.002 0.002,-0.002 3.727013,-2.15257 6.980393,-4.56071 9.457028,-7.03711 2.11876,-2.11873 3.53764,-4.14174 4.28516,-6.00195 0.74751,-1.86021 0.82062,-3.56503 0.22461,-5.00391 -0.59602,-1.43887 -1.85332,-2.59406 -3.69727,-3.38086 -1.84395,-0.78679 -4.277085,-1.21484 -7.273434,-1.21484 -11.041771,0 -25.826205,5.81805 -34.724609,13.35742 1.030402,-1.30182 1.882634,-2.57143 2.359375,-3.75781 0.747515,-1.86021 0.820621,-3.56503 0.224609,-5.00391 -0.596012,-1.43887 -1.853317,-2.59406 -3.697266,-3.38086 -1.843948,-0.78679 -4.279042,-1.21484 -7.27539,-1.21484 z m 0,0.42188 c 2.956097,0 5.340085,0.42587 7.111328,1.18164 1.771243,0.75577 2.926144,1.83297 3.472656,3.15234 0.546512,1.31937 0.491479,2.89869 -0.226562,4.68555 -0.718041,1.78685 -2.101113,3.77301 -4.191406,5.86328 -0.103172,0.10316 -0.20851,0.20563 -0.314454,0.30859 l 0.02539,0.0274 c -0.371881,0.38381 -0.652431,0.75848 -0.980469,1.13867 l -0.134765,-0.15235 c -3.97189,3.53369 -9.49873,6.87452 -15.619141,9.41016 -6.879659,2.84916 -13.947553,4.44727 -19.625,4.44727 -2.838724,0 -5.213703,-0.40061 -7.009766,-1.14454 -1.796062,-0.74392 -3.007946,-1.82267 -3.574218,-3.18945 -0.566239,-1.36729 -0.472477,-2.98712 0.271484,-4.7832 0.743961,-1.79608 2.139186,-3.75858 4.146484,-5.76563 8.361074,-8.36107 24.82414,-15.17968 36.648438,-15.17968 z m 0,15.03125 c -11.344852,0 -26.719831,6.12309 -35.519531,13.96093 l 0.279297,0.31446 c 8.698505,-7.74772 24.047784,-13.85352 35.240234,-13.85352 1.803031,0 3.393989,0.15816 4.761719,0.45313 l 0.08789,-0.41211 c -1.403198,-0.30262 -3.022027,-0.46289 -4.849609,-0.46289 z m 43.113281,0 c -11.108597,0 -26.00264,5.9011 -34.882812,13.5039 2.235065,-2.77828 3.360707,-5.37152 3.101562,-7.53125 -0.282242,-2.35222 -2.049247,-4.16544 -5.080078,-5.13867 l -0.128906,0.40234 c 2.933093,0.94185 4.528285,2.61378 4.789062,4.78711 0.260777,2.17333 -0.83739,4.90716 -3.472656,7.92188 l 0.316406,0.27734 c 0.01365,-0.0156 0.01572,-0.0293 0.0293,-0.0449 l 0.08594,0.0977 c 8.698505,-7.74772 24.049737,-13.85352 35.242187,-13.85352 1.765089,0 3.325739,0.15049 4.673825,0.43359 l 0.0859,-0.41211 c -1.382546,-0.29033 -2.970636,-0.44335 -4.759765,-0.44335 z m 6.230467,0.82812 -0.1289,0.40039 c 3.16018,1.00912 4.77844,2.85831 4.8457,5.2793 0.0673,2.42098 -1.46102,5.47473 -4.7832,8.79687 -2.317788,2.31757 -5.339728,4.5865 -8.804692,6.63867 -6.26e-4,3.7e-4 -0.0013,-3.5e-4 -0.002,0 -0.208586,0.11971 -0.383395,0.0943 -0.640625,-0.084 -0.258001,-0.17878 -0.555519,-0.52544 -0.861328,-0.99219 -0.611619,-0.93348 -1.264794,-2.33274 -1.927734,-3.79492 l -0.384766,0.17383 c 0.664043,1.46461 1.317372,2.8723 1.958984,3.85156 0.320807,0.48963 0.636083,0.87479 0.97461,1.10938 0.338527,0.23458 0.744494,0.30325 1.09375,0.10156 l -0.128907,-0.22461 0.13086,0.22266 c 3.490303,-2.06706 6.538343,-4.35498 8.888668,-6.70508 3.36742,-3.36738 4.97864,-6.49969 4.90625,-9.10547 -0.0724,-2.60578 -1.87164,-4.62536 -5.13672,-5.66797 z"
       id="path1178" />
    <path
       style="color:#000000;font-style:normal;font-variant:normal;font-weight:normal;font-stretch:normal;font-size:medium;line-height:normal;font-family:sans-serif;font-variant-ligatures:normal;font-variant-position:normal;font-variant-caps:normal;font-variant-numeric:normal;font-variant-alternates:normal;font-variant-east-asian:normal;font-feature-settings:normal;font-variation-settings:normal;text-indent:0;text-align:start;text-decoration:none;text-decoration-line:none;text-decoration-style:solid;text-decoration-color:#000000;letter-spacing:normal;word-spacing:normal;text-transform:none;writing-mode:lr-tb;direction:ltr;text-orientation:mixed;dominant-baseline:auto;baseline-shift:baseline;text-anchor:start;white-space:normal;shape-padding:0;shape-margin:0;inline-size:0;clip-rule:nonzero;display:inline;overflow:visible;visibility:visible;opacity:1;isolation:auto;mix-blend-mode:normal;color-interpolation:sRGB;color-interpolation-filters:linearRGB;solid-color:#000000;solid-opacity:1;vector-effect:none;fill:#000000;fill-opacity:1;fill-rule:nonzero;stroke:none;stroke-width:0.421322;stroke-linecap:butt;stroke-linejoin:miter;stroke-miterlimit:4;stroke-dasharray:none;stroke-dashoffset:0;stroke-opacity:1;color-rendering:auto;image-rendering:auto;shape-rendering:auto;text-rendering:auto;enable-background:accumulate;stop-color:#000000;stop-opacity:1"
       d="m 173.39488,199.50754 c -1.98111,0 -4.08388,0.18824 -6.2539,0.53906 -2.57444,0.41619 -5.24253,1.06242 -7.91016,1.89844 -0.001,3.9e-4 -0.003,-3.9e-4 -0.004,0 v 0.002 c -0.96122,0.27975 -1.74135,1.35257 -2.48828,2.82422 -0.74792,1.47358 -1.44806,3.3719 -2.13672,5.36133 l 0.39843,0.13672 c 0.68683,-1.98411 1.38542,-3.86872 2.11524,-5.30664 0.72981,-1.43793 1.5037,-2.40289 2.23242,-2.61329 l -0.0723,-0.25195 0.0781,0.25 c 2.65146,-0.83113 5.30042,-1.47203 7.85351,-1.88476 2.15103,-0.34775 4.233,-0.53321 6.1875,-0.53321 2.9561,0 5.34009,0.42587 7.11133,1.18164 1.77125,0.75577 2.92615,1.83297 3.47266,3.15235 0.54651,1.31937 0.49148,2.89869 -0.22656,4.68554 -0.71804,1.78686 -2.10112,3.77302 -4.19141,5.86328 -4.01451,4.01412 -10.14388,7.88227 -17.02344,10.73243 -6.87966,2.84916 -13.9495,4.44726 -19.62695,4.44726 -2.83872,0 -5.21175,-0.4006 -7.00781,-1.14453 -1.79607,-0.74393 -3.00795,-1.82267 -3.57422,-3.18945 -0.56624,-1.3673 -0.47248,-2.98712 0.27148,-4.78321 0.74396,-1.79608 2.13919,-3.75857 4.14649,-5.76562 3.23835,-3.23835 7.69098,-6.25036 12.61914,-8.7207 0.33801,-0.16944 0.6788,-0.14181 1.08398,0.0566 0.40519,0.19844 0.85387,0.57764 1.32031,1.08593 0.9329,1.01659 1.93644,2.53617 2.94727,4.07618 1.01083,1.54 2.0291,3.10202 3.02344,4.22656 0.49717,0.56227 0.98948,1.01605 1.48437,1.30273 0.49365,0.28596 1.00751,0.40297 1.5,0.25 v 0.002 c 0.001,-4.1e-4 0.002,-0.002 0.004,-0.002 2.71963,-0.785 5.42012,-1.36304 7.99805,-1.6914 1.61314,-0.20547 3.17717,-0.3125 4.66796,-0.3125 1.76509,0 3.32574,0.15049 4.67383,0.43359 l 0.0879,-0.41211 c -1.38254,-0.29034 -2.9726,-0.44336 -4.76172,-0.44336 -1.51108,0 -3.092,0.10896 -4.7207,0.31641 -2.60412,0.3317 -5.32686,0.91412 -8.0664,1.70508 l 0.0684,0.23828 -0.0742,-0.23633 c -0.35787,0.11218 -0.73496,0.0368 -1.16602,-0.21289 -0.43105,-0.2497 -0.89872,-0.67374 -1.37891,-1.2168 -0.96036,-1.08612 -1.97516,-2.63917 -2.98632,-4.17969 -1.01117,-1.54051 -2.01829,-3.06975 -2.99024,-4.1289 -0.48597,-0.52958 -0.96194,-0.94295 -1.44531,-1.17969 -0.48337,-0.23674 -0.99536,-0.28513 -1.45898,-0.0527 -4.95987,2.48623 -9.44412,5.51638 -12.72657,8.79882 -2.0352,2.03495 -3.46466,4.03273 -4.23828,5.9004 -0.77361,1.86766 -0.88924,3.61571 -0.27148,5.10742 0.61782,1.49121 1.93509,2.64439 3.80273,3.41797 1.86764,0.77357 4.28979,1.17578 7.16797,1.17578 5.75635,0 12.86477,-1.61363 19.78711,-4.48047 5.77623,-2.39306 10.9475,-5.50779 14.89258,-8.83399 -2.54327,3.23423 -3.54011,6.3035 -2.53906,8.72071 0.61782,1.49121 1.93509,2.64439 3.80273,3.41797 1.86764,0.77357 4.29174,1.17578 7.16992,1.17578 5.75635,0 12.86477,-1.61363 19.78711,-4.48047 6.92224,-2.86784 13.0879,-6.75433 17.1582,-10.82422 2.11876,-2.11873 3.53764,-4.14175 4.28516,-6.00195 0.74752,-1.86021 0.82062,-3.56503 0.22461,-5.00391 -0.59601,-1.43888 -1.85332,-2.59407 -3.69727,-3.38086 -1.84395,-0.78679 -4.27903,-1.21484 -7.27539,-1.21484 -11.04176,0 -25.82424,5.81804 -34.72265,13.35742 1.0304,-1.30182 1.88263,-2.57144 2.35937,-3.75781 0.74752,-1.86021 0.82062,-3.56503 0.22461,-5.00391 -0.59601,-1.43888 -1.85331,-2.59407 -3.69726,-3.38086 -1.84395,-0.78679 -4.27904,-1.21484 -7.2754,-1.21484 z m 43.11133,0.42187 c 2.95611,0 5.34009,0.42587 7.11133,1.18164 1.77125,0.75577 2.92614,1.83297 3.47266,3.15235 0.54651,1.31937 0.49148,2.89869 -0.22656,4.68554 -0.71805,1.78686 -2.10112,3.77302 -4.19141,5.86328 -4.01452,4.01412 -10.14388,7.88227 -17.02344,10.73243 -6.87966,2.84916 -13.94755,4.44726 -19.625,4.44726 -2.83872,0 -5.2137,-0.4006 -7.00976,-1.14453 -1.79607,-0.74393 -3.00795,-1.82267 -3.57422,-3.18945 -1.00429,-2.42504 0.0849,-5.6817 3.15039,-9.19336 l -0.13867,-0.1211 c 0.35264,-0.31622 0.74838,-0.62616 1.07617,-0.94531 l 0.0234,0.0234 c 0.10086,-0.10388 0.20247,-0.20834 0.30664,-0.3125 8.36107,-8.36107 24.82415,-15.17969 36.64843,-15.17969 z m -62.42187,11.71485 c -0.75518,2.22376 -1.50383,4.45528 -2.2793,6.23046 -0.77547,1.77519 -1.60314,3.08202 -2.3789,3.4668 -4.37237,2.16871 -8.38664,4.76179 -11.55079,7.58008 l 0.2793,0.31445 c 3.12776,-2.78587 7.11445,-5.36267 11.45899,-7.51758 0.99051,-0.49129 1.79067,-1.87122 2.57812,-3.67382 0.78745,-1.80261 1.53619,-4.04094 2.29102,-6.26368 z m 62.42187,3.3164 c -9.77795,0 -22.5482,4.5539 -31.52539,10.82422 -1.18523,0.82786 -2.25394,1.70205 -3.29101,2.58398 2.18397,-2.74646 3.29709,-5.31212 3.03515,-7.44921 -0.28813,-2.35082 -2.06233,-4.161 -5.09961,-5.13086 l -0.12695,0.40039 c 2.9397,0.9387 4.54241,2.60951 4.80859,4.78125 0.26619,2.17174 -0.82831,4.9054 -3.45898,7.91992 l 0.31641,0.27734 c 0.008,-0.009 0.009,-0.0179 0.0176,-0.0273 l 0.084,0.0957 c 1.2014,-1.07007 2.52861,-2.10912 3.95508,-3.10547 8.90159,-6.21752 21.63855,-10.74804 31.28515,-10.74804 1.7651,0 3.32769,0.15049 4.67578,0.43359 l 0.0859,-0.41211 c -1.38254,-0.29034 -2.97259,-0.44336 -4.76172,-0.44336 z m 6.23047,0.82813 -0.12695,0.40039 c 3.16019,1.00911 4.77844,2.85831 4.8457,5.27929 0.0673,2.42099 -1.46102,5.47474 -4.7832,8.79688 -2.08698,2.08677 -4.74693,4.1343 -7.78516,6.01953 l 0.0859,0.13672 -0.0879,-0.13477 c -0.77316,0.49848 -1.41467,1.70955 -2.07422,3.31446 -0.65955,1.60491 -1.31026,3.60717 -1.97266,5.67187 l 0.4004,0.12891 c 0.66206,-2.06366 1.31316,-4.05964 1.96289,-5.64063 0.64972,-1.58099 1.32578,-2.74307 1.91211,-3.12109 3.05922,-1.8986 5.74036,-3.96324 7.85546,-6.07813 3.36742,-3.36737 4.97865,-6.49969 4.90625,-9.10546 -0.0724,-2.60578 -1.87358,-4.62537 -5.13867,-5.66797 z m -85.96484,14.1582 c -0.10868,0.10564 -0.21609,0.21218 -0.32227,0.31836 -2.0352,2.03495 -3.46466,4.03272 -4.23828,5.90039 -0.77361,1.86767 -0.88924,3.61376 -0.27148,5.10547 0.61782,1.49122 1.93509,2.64439 3.80273,3.41797 1.86764,0.77357 4.28979,1.17773 7.16797,1.17773 5.75635,0 12.86477,-1.61363 19.78711,-4.48047 3.52496,-1.46037 6.85437,-3.18619 9.81055,-5.06445 1.6138,-1.02536 3.07678,-2.10227 4.43945,-3.20117 -2.22332,2.93281 -2.89822,5.86406 -1.89648,8.15039 0.61782,1.49122 1.93509,2.64439 3.80273,3.41797 1.86764,0.77357 4.29174,1.17773 7.16992,1.17773 5.75635,0 12.86477,-1.61363 19.78711,-4.48047 0.35165,-0.14568 0.69474,-0.10217 1.08789,0.10742 0.39315,0.2096 0.81723,0.59234 1.24805,1.09571 0.86164,1.00673 1.75347,2.48453 2.63086,3.95508 0.87738,1.47054 1.74022,2.93415 2.57812,3.93945 0.41896,0.50265 0.82944,0.8925 1.25782,1.10937 0.42837,0.21688 0.90007,0.24029 1.3125,-0.0156 l -0.10938,-0.17773 0.11328,0.17578 c 2.72086,-1.75421 5.11416,-3.63585 7.03906,-5.56055 3.36742,-3.36738 4.97865,-6.49969 4.90625,-9.10547 -0.0724,-2.60578 -1.87358,-4.62536 -5.13867,-5.66797 l -0.12695,0.40039 c 3.16019,1.00912 4.77844,2.85831 4.8457,5.2793 0.0673,2.42099 -1.46102,5.47278 -4.7832,8.79492 -1.89761,1.89741 -4.26838,3.76385 -6.9668,5.50391 -6.3e-4,3.9e-4 -0.001,-3.9e-4 -0.002,0 -0.29098,0.17978 -0.55913,0.16983 -0.89844,-0.002 -0.34004,-0.17215 -0.72517,-0.5242 -1.125,-1.0039 -0.79965,-0.9594 -1.66301,-2.41514 -2.54101,-3.88672 -0.87801,-1.47158 -1.77174,-2.96001 -2.67188,-4.01172 -0.45007,-0.52585 -0.9007,-0.94557 -1.36914,-1.19531 -0.46844,-0.24974 -0.97251,-0.3225 -1.44922,-0.125 -6.87966,2.84916 -13.94755,4.44922 -19.625,4.44922 -2.83872,0 -5.2137,-0.40061 -7.00976,-1.14453 -1.79607,-0.74393 -3.00795,-1.82267 -3.57422,-3.18946 l -0.002,-0.002 v -0.002 c -1.09012,-2.48341 -0.18919,-5.89241 3.04493,-9.2461 l -0.0488,-0.0469 c 0.46772,-0.41875 1.00005,-0.82822 1.42383,-1.25196 0.10475,-0.10475 0.21109,-0.20823 0.31836,-0.3125 l -0.29297,-0.30273 c -0.10868,0.10564 -0.21609,0.21218 -0.32227,0.31836 -1.97023,1.97003 -4.44973,3.90459 -7.27734,5.70117 -2.93388,1.8641 -6.24287,3.57793 -9.7461,5.0293 -6.87966,2.84916 -13.9495,4.44922 -19.62695,4.44922 -2.83873,0 -5.21175,-0.40061 -7.00781,-1.14453 -1.79607,-0.74393 -3.00795,-1.82267 -3.57422,-3.18946 -0.56624,-1.36729 -0.47248,-2.98907 0.27148,-4.78515 0.74396,-1.79608 2.13919,-3.75663 4.14649,-5.76368 0.10476,-0.10475 0.21109,-0.20823 0.31836,-0.3125 z m 36.62304,0.4668 c -11.34485,0 -26.71983,6.12113 -35.51953,13.95898 l 0.2793,0.31641 c 8.6985,-7.74772 24.04779,-13.85352 35.24023,-13.85352 1.75317,0 3.30466,0.14831 4.64649,0.42774 l 0.0859,-0.41211 c -1.37597,-0.28654 -2.95539,-0.4375 -4.73243,-0.4375 z m 43.11133,0 c -9.46244,0 -21.72655,4.26551 -30.64453,10.22265 -1.52894,1.02132 -2.8985,2.11363 -4.19922,3.22266 2.20927,-2.76571 3.32817,-5.34891 3.06055,-7.49805 -0.29349,-2.35689 -2.08137,-4.16753 -5.14063,-5.13281 l -0.12695,0.40039 c 2.96176,0.93451 4.5785,2.60803 4.84961,4.78516 0.27111,2.17713 -0.82626,4.9201 -3.4707,7.94531 l 0.3164,0.27734 c 6.9e-4,-7.9e-4 10e-4,-0.001 0.002,-0.002 l 0.0762,0.0859 c 1.45248,-1.2973 3.09226,-2.54874 4.86719,-3.73438 8.84656,-5.90943 21.07482,-10.15039 30.41015,-10.15039 1.7651,0 3.32769,0.15049 4.67578,0.4336 l 0.0859,-0.41211 c -1.38254,-0.29034 -2.97259,-0.44336 -4.76172,-0.44336 z m -79.73437,14.98633 c -0.10868,0.10563 -0.21609,0.21022 -0.32227,0.3164 -2.0352,2.03495 -3.46466,4.03468 -4.23828,5.90234 -0.77361,1.86767 -0.88924,3.61377 -0.27148,5.10547 0.61782,1.49122 1.93509,2.6444 3.80273,3.41797 1.86764,0.77358 4.28979,1.17578 7.16797,1.17578 5.75635,0 12.86477,-1.61167 19.78711,-4.47851 4.07777,-1.6894 7.89445,-3.73366 11.17383,-5.95899 1.58434,-1.0751 2.84342,-2.22806 4.14648,-3.36914 -1.17267,1.40791 -2.15203,2.79584 -2.69531,4.10742 -0.77361,1.86767 -0.88925,3.61377 -0.27148,5.10547 0.61782,1.49122 1.93509,2.6444 3.80273,3.41797 1.86764,0.77358 4.29174,1.17578 7.16992,1.17578 5.75635,0 12.86477,-1.61167 19.78711,-4.47851 1.01199,-0.41926 1.83198,-1.75559 2.63086,-3.53711 0.79888,-1.78152 1.55076,-4.02689 2.2832,-6.29688 l -0.40039,-0.13086 c -0.73146,2.26697 -1.48242,4.50301 -2.26758,6.25391 -0.78515,1.7509 -1.63054,2.99814 -2.4082,3.32031 -6.87966,2.84916 -13.94755,4.44922 -19.625,4.44922 -2.83872,0 -5.2137,-0.4006 -7.00976,-1.14453 -1.79607,-0.74393 -3.00795,-1.82267 -3.57422,-3.18945 -0.56624,-1.3673 -0.47248,-2.98908 0.27148,-4.78516 0.74396,-1.79608 2.13919,-3.75662 4.14649,-5.76367 0.10718,-0.10719 0.21279,-0.21361 0.3164,-0.32031 l -0.30273,-0.29492 c -0.10215,0.10519 -0.2048,0.21065 -0.31055,0.3164 -1.64964,1.64947 -3.65671,3.27471 -5.92578,4.81445 -3.25288,2.20735 -7.04503,4.23899 -11.09766,5.91797 -6.87966,2.84916 -13.9495,4.44922 -19.62695,4.44922 -2.83872,0 -5.21175,-0.4006 -7.00781,-1.14453 -1.79607,-0.74393 -3.00795,-1.82267 -3.57422,-3.18945 -0.56624,-1.3673 -0.47248,-2.98908 0.27148,-4.78516 0.74396,-1.79608 2.13919,-3.75662 4.14649,-5.76367 0.10476,-0.10476 0.21109,-0.21019 0.31836,-0.31445 z"
       id="path1186" />
    <text
       style="font-size:2.64583px;font-family:monospace;-inkscape-font-specification:'monospace, Normal';fill:#000000;fill-opacity:1;stroke:none;stroke-width:0.264583"
       xml:space="preserve"
       id="text1191"
       y="290.87796"
       x="47.705219"><tspan
         sodipodi:role="line"
         id="tspan1189"
         x="47.705219"
         y="290.87796"
         style="stroke-width:0.264583">$S^1 \vee S^1$</tspan></text>
    <text
       style="font-size:2.64583px;font-family:monospace;-inkscape-font-specification:'monospace, Normal';fill:#000000;fill-opacity:1;stroke:none;stroke-width:0.264583"
       xml:space="preserve"
       id="text1205"
       y="242.48317"
       x="10.185056"><tspan
         sodipodi:role="line"
         id="tspan1203"
         x="10.185056"
         y="242.48317"
         style="stroke-width:0.264583">$\text{2-слойное накрытие } S^1 \vee S^1$</tspan></text>
    <text
       style="font-size:2.64583px;font-family:monospace;-inkscape-font-specification:'monospace, Normal';fill:#000000;fill-opacity:1;stroke:none;stroke-width:0.264583"
       xml:space="preserve"
       id="text1219"
       y="272.77939"
       x="133.81651"><tspan
         sodipodi:role="line"
         id="tspan1217"
         x="133.81651"
         y="272.77939"
         style="stroke-width:0.264583">$\text{3-слойное накрытие } S^1 \vee S^1$</tspan></text>
  </g>
</svg>
