<?xml version="1.0" encoding="UTF-8" standalone="no"?>
<svg
   xmlns:dc="http://purl.org/dc/elements/1.1/"
   xmlns:cc="http://creativecommons.org/ns#"
   xmlns:rdf="http://www.w3.org/1999/02/22-rdf-syntax-ns#"
   xmlns:svg="http://www.w3.org/2000/svg"
   xmlns="http://www.w3.org/2000/svg"
   xmlns:sodipodi="http://sodipodi.sourceforge.net/DTD/sodipodi-0.dtd"
   xmlns:inkscape="http://www.inkscape.org/namespaces/inkscape"
   width="240mm"
   height="120mm"
   viewBox="0 0 240 120"
   version="1.1"
   id="svg8"
   inkscape:version="1.0 (262b4497e3, 2020-09-04)"
   sodipodi:docname="2.svg">
  <defs
     id="defs2">
    <inkscape:path-effect
       effect="bspline"
       id="path-effect32"
       is_visible="true"
       lpeversion="1"
       weight="33.333333"
       steps="2"
       helper_size="0"
       apply_no_weight="true"
       apply_with_weight="true"
       only_selected="false" />
    <inkscape:path-effect
       effect="bspline"
       id="path-effect28"
       is_visible="true"
       lpeversion="1"
       weight="33.333333"
       steps="2"
       helper_size="0"
       apply_no_weight="true"
       apply_with_weight="true"
       only_selected="false" />
    <inkscape:path-effect
       effect="bspline"
       id="path-effect9"
       is_visible="true"
       lpeversion="1"
       weight="33.333333"
       steps="2"
       helper_size="0"
       apply_no_weight="true"
       apply_with_weight="true"
       only_selected="false" />
    <marker
       id="marker-arrow-1.5923999999999998"
       orient="auto-start-reverse"
       refY="0"
       refX="0"
       markerHeight="1.690"
       markerWidth="0.911">
      <g
         transform="scale(1.0733986435568954)"
         id="g13">
        <path
           d="M -1.55415,2.0722 C -1.42464,1.29512 0,0.1295 0.38852,0 0,-0.1295 -1.42464,-1.29512 -1.55415,-2.0722"
           style="fill:none;stroke:#000000;stroke-width:0.6;stroke-linecap:round;stroke-linejoin:round;stroke-miterlimit:10;stroke-dasharray:none;stroke-opacity:1"
           inkscape:connector-curvature="0"
           id="path11" />
      </g>
    </marker>
    <marker
       id="marker-arrow-1.5923999999999998-3"
       orient="auto-start-reverse"
       refY="0"
       refX="0"
       markerHeight="1.690"
       markerWidth="0.911">
      <g
         transform="scale(1.0733986435568954)"
         id="g36">
        <path
           d="M -1.55415,2.0722 C -1.42464,1.29512 0,0.1295 0.38852,0 0,-0.1295 -1.42464,-1.29512 -1.55415,-2.0722"
           style="fill:none;stroke:#000000;stroke-width:0.6;stroke-linecap:round;stroke-linejoin:round;stroke-miterlimit:10;stroke-dasharray:none;stroke-opacity:1"
           inkscape:connector-curvature="0"
           id="path34" />
      </g>
    </marker>
    <marker
       id="marker-arrow-1.5923999999999998-7"
       orient="auto-start-reverse"
       refY="0"
       refX="0"
       markerHeight="1.690"
       markerWidth="0.911">
      <g
         transform="scale(1.0733986435568954)"
         id="g69">
        <path
           d="M -1.55415,2.0722 C -1.42464,1.29512 0,0.1295 0.38852,0 0,-0.1295 -1.42464,-1.29512 -1.55415,-2.0722"
           style="fill:none;stroke:#000000;stroke-width:0.6;stroke-linecap:round;stroke-linejoin:round;stroke-miterlimit:10;stroke-dasharray:none;stroke-opacity:1"
           inkscape:connector-curvature="0"
           id="path67" />
      </g>
    </marker>
  </defs>
  <sodipodi:namedview
     id="base"
     pagecolor="#ffffff"
     bordercolor="#666666"
     borderopacity="1.0"
     inkscape:pageopacity="0.0"
     inkscape:pageshadow="2"
     inkscape:zoom="1"
     inkscape:cx="453.54331"
     inkscape:cy="226.77165"
     inkscape:document-units="mm"
     inkscape:current-layer="layer1"
     inkscape:document-rotation="0"
     showgrid="false"
     inkscape:window-width="1270"
     inkscape:window-height="764"
     inkscape:window-x="4"
     inkscape:window-y="30"
     inkscape:window-maximized="1" />
  <metadata
     id="metadata5">
    <rdf:RDF>
      <cc:Work
         rdf:about="">
        <dc:format>image/svg+xml</dc:format>
        <dc:type
           rdf:resource="http://purl.org/dc/dcmitype/StillImage" />
        <dc:title />
      </cc:Work>
    </rdf:RDF>
  </metadata>
  <g
     inkscape:label="Слой 1"
     inkscape:groupmode="layer"
     id="layer1">
    <path
       style="fill:none;fill-opacity:1;stroke:#000000;stroke-width:0.421322;stroke-linecap:butt;stroke-linejoin:miter;stroke-dasharray:none;stroke-opacity:1;marker-start:none;marker-end:url(#marker-arrow-1.5923999999999998)"
       d="m 162.24423,64.618898 c -2.20416,-10.183484 -4.40899,-20.370045 -8.48607,-25.464863 -4.07708,-5.094818 -10.02839,-5.094818 -15.42909,-5.90979 -5.4007,-0.814971 -10.25132,-2.445984 -13.36092,-4.142273 -3.1096,-1.696289 -4.47728,-3.459721 -6.59394,-4.519283 -2.11665,-1.059561 -4.98293,-1.412679 -7.82681,-1.765793 -2.84388,-0.353114 -5.66537,-0.70623 -10.09781,1.365833 -4.432428,2.072063 -10.473312,6.569996 -14.043854,8.819125 -3.570543,2.249128 -4.672953,2.249128 -7.627736,0.640669 -2.954784,-1.60846 -7.762342,-4.827421 -13.142575,-7.429457 -5.380234,-2.602037 -11.333266,-4.586167 -16.273596,-0.463238 -4.940329,4.122929 -8.864233,14.352552 -9.766518,21.298397 -0.902286,6.945845 1.214693,10.606202 7.18989,13.493422 5.975198,2.887219 15.807347,5.003767 22.950586,6.370893 7.143239,1.367127 11.597679,1.985083 14.021562,7.564527 2.423883,5.579444 2.820062,16.118044 11.023322,22.951613 8.203259,6.83357 24.210649,9.96425 35.102559,11.04412 10.89192,1.07987 16.66926,0.10987 22.13679,-1.78659 5.46754,-1.89646 10.62648,-4.71924 13.02911,-7.605985 2.40263,-2.886741 2.04952,-5.840868 1.87278,-9.015827 -0.17673,-3.17496 -0.17673,-6.570477 -1.01391,-9.87746 -0.83718,-3.306983 -2.51319,-6.525943 -3.26431,-9.105547 -0.75111,-2.579603 -0.57542,-4.519592 -0.39946,-6.462493"
       id="path7"
       inkscape:path-effect="#path-effect9"
       inkscape:original-d="m 162.24423,64.618898 c -2.20218,-10.183913 -4.40701,-20.370474 -6.61449,-30.559681 -5.94866,0.0026 -11.89997,0.0026 -17.85393,0 -4.84797,-1.628368 -9.69859,-3.259381 -14.55186,-4.893038 -1.36503,-1.760786 -2.73271,-3.524218 -4.10304,-5.290295 -2.86363,-0.350471 -5.72991,-0.703588 -8.59883,-1.059351 -2.81885,-0.350471 -5.64034,-0.703587 -8.46447,-1.05935 -6.038237,4.500578 -12.079122,8.99851 -18.12265,13.493799 -1.099767,0.0026 -2.202177,0.0026 -3.307236,0 -4.804912,-3.216315 -9.612471,-6.435275 -14.422672,-9.656881 -5.95039,-1.981484 -11.903422,-3.965614 -17.859103,-5.95239 -3.921257,10.232271 -7.845163,20.461893 -11.771712,30.688873 2.119625,3.663002 4.236604,7.323359 6.350937,10.981073 9.834798,2.119193 19.666947,4.235741 29.496453,6.349643 4.457089,0.620601 8.911529,1.238559 13.363324,1.853869 0.398825,10.541246 0.795001,21.079846 1.188535,31.615801 16.010044,3.13333 32.017434,6.26401 48.022184,9.39205 5.77998,-0.96735 11.55732,-1.93734 17.33201,-2.90998 5.1616,-2.82014 10.32055,-5.64292 15.47685,-8.468351 -0.35047,-2.95148 -0.70359,-5.905606 -1.05935,-8.862377 0.003,-3.392874 0.003,-6.788391 0,-10.186556 -1.67337,-3.216318 -3.34938,-6.435278 -5.02803,-9.656887 0.17572,-1.937055 0.35141,-3.877044 0.52708,-5.819971"
       sodipodi:nodetypes="ccccccccccccccccccccccc" />
    <path
       style="fill:none;stroke:black;stroke-width:0.4213225;stroke-linecap:butt;stroke-linejoin:miter;stroke-opacity:1;fill-opacity:1;marker-end:url(#marker-arrow-1.5923999999999998);marker-start:none;stroke-dasharray:none"
       d="m 78.023801,45.725146 c 0.750375,-1.169191 1.677092,-2.183325 5.360508,-2.271475 3.683417,-0.08815 10.120477,0.749426 14.264992,1.565425 4.144519,0.816 5.996229,1.609435 9.744259,2.248359 3.74804,0.638924 9.39274,1.124461 12.34651,2.272376 2.95378,1.147915 3.21905,2.955485 2.86558,4.475374 -0.35347,1.519889 -1.32497,2.754721 -4.63143,4.562383 -3.30645,1.807662 -8.94943,4.189049 -12.78481,5.380017 -3.83538,1.190968 -5.864513,1.190968 -8.003618,0.64054 -2.139105,-0.550429 -4.38872,-1.652842 -5.954602,-2.534225 -1.565881,-0.881383 -2.447816,-1.542402 -4.299686,-1.874021 -1.851869,-0.331619 -4.673356,-0.331619 -6.636122,-2.049865 -1.962766,-1.718246 -3.06518,-5.157909 -3.330368,-7.540247 -0.265189,-2.382338 0.308412,-3.705451 1.058787,-4.874641 z"
       id="path26"
       inkscape:path-effect="#path-effect28"
       inkscape:original-d="m 77.847573,45.569965 c 0.929362,-1.011489 1.856081,-2.025621 2.780151,-3.042402 6.439707,0.840222 12.876768,1.677797 19.311184,2.512727 1.854362,0.796081 3.706072,1.589516 5.555132,2.380306 5.64735,0.488182 11.29205,0.973719 16.93411,1.456613 0.26791,1.810213 0.53318,3.617783 0.7958,5.422707 -0.96885,1.237477 -1.94035,2.472309 -2.9145,3.704497 -5.64033,2.384033 -11.28331,4.765421 -16.92894,7.14416 -2.02648,0.0026 -4.055613,0.0026 -6.087385,0 -2.246972,-1.099767 -4.496586,-2.202183 -6.748847,-3.307241 -0.879287,-0.658371 -1.761222,-1.31939 -2.645801,-1.983052 -2.818842,0.0026 -5.640329,0.0026 -8.464463,0 -1.099767,-3.437015 -2.202182,-6.876677 -3.307241,-10.318983 0.576244,-1.320464 1.149845,-2.643577 1.7208,-3.969332 z" />
    <path
       style="fill:none;stroke:black;stroke-width:0.4213225;stroke-linecap:butt;stroke-linejoin:miter;stroke-opacity:1;fill-opacity:1;marker-end:url(#marker-arrow-1.5923999999999998);marker-start:none;stroke-dasharray:none"
       d="m 126.21846,84.200583 c 0.044,-1.499017 0.044,-3.394871 1.87513,-4.807284 1.83111,-1.412412 5.49147,-2.338268 8.53453,-1.278306 3.04307,1.059962 5.46838,4.102366 8.44533,6.262178 2.97695,2.159813 6.50467,3.438782 7.56132,5.334496 1.05665,1.895713 -0.3541,4.408444 -5.55527,5.157463 -5.20118,0.749019 -14.19619,-0.265115 -18.34316,-1.719541 -4.14698,-1.454426 -3.44247,-3.350278 -3.04611,-4.84893 0.39636,-1.498652 0.48421,-2.601059 0.52823,-4.100076 z"
       id="path30"
       inkscape:path-effect="#path-effect32"
       inkscape:original-d="m 126.26248,84.59477 c 0.003,-1.893204 0.003,-3.789058 0,-5.687557 3.66301,-0.923208 7.32337,-1.849064 10.98108,-2.777567 2.42795,3.04505 4.85326,6.087454 7.27593,9.127212 3.53037,1.281616 7.05809,2.560588 10.58317,3.836911 -1.4081,2.515375 -2.81885,5.028105 -4.23224,7.538186 -8.99236,-1.011487 -17.98737,-2.025621 -26.98503,-3.042402 0.70716,-1.893205 1.41167,-3.789058 2.11354,-5.687555 0.0905,-1.099764 0.17834,-2.202172 0.26355,-3.307228 z" />
  </g>
</svg>
