<?xml version="1.0" encoding="UTF-8" standalone="no"?>
<svg
   xmlns:dc="http://purl.org/dc/elements/1.1/"
   xmlns:cc="http://creativecommons.org/ns#"
   xmlns:rdf="http://www.w3.org/1999/02/22-rdf-syntax-ns#"
   xmlns:svg="http://www.w3.org/2000/svg"
   xmlns="http://www.w3.org/2000/svg"
   xmlns:sodipodi="http://sodipodi.sourceforge.net/DTD/sodipodi-0.dtd"
   xmlns:inkscape="http://www.inkscape.org/namespaces/inkscape"
   width="240mm"
   height="120mm"
   viewBox="0 0 240 120"
   version="1.1"
   id="svg8"
   inkscape:version="1.0.1 (1.0.1+r73)"
   sodipodi:docname="6.svg">
  <defs
     id="defs2">
    <inkscape:path-effect
       effect="knot"
       id="path-effect967"
       is_visible="true"
       lpeversion="1"
       switcher_size="15"
       interruption_width="3"
       prop_to_stroke_width="true"
       add_stroke_width="inkscape_1.0_and_up"
       both="false"
       inverse_width="false"
       add_other_stroke_width="inkscape_1.0_and_up"
       crossing_points_vector="" />
    <inkscape:path-effect
       effect="knot"
       id="path-effect965"
       is_visible="true"
       lpeversion="1"
       switcher_size="5"
       interruption_width="3"
       prop_to_stroke_width="true"
       add_stroke_width="inkscape_1.0_and_up"
       both="false"
       inverse_width="false"
       add_other_stroke_width="inkscape_1.0_and_up"
       crossing_points_vector="189.17067 | 222.81594 | 0 | 0 | 0 | 5 | 0.35127466 | 4.4747353 | 1 | 200.76156 | 232.15027 | 0 | 0 | 1 | 8 | 0.82251572 | 6.328668 | 1 | 198.80879 | 214.10166 | 0 | 0 | 3 | 6 | 2.3721267 | 4.8650116 | 1 | 211.25509 | 224.6067 | 0 | 0 | 2 | 7 | 2.1113994 | 6.0827831 | -1 | 176.08744 | 222.40323 | 0 | 0 | 4 | 9 | 3.3313182 | 7.5461948 | 1" />
    <inkscape:path-effect
       effect="knot"
       id="path-effect937"
       is_visible="true"
       lpeversion="1"
       switcher_size="15"
       interruption_width="3"
       prop_to_stroke_width="true"
       add_stroke_width="inkscape_1.0_and_up"
       both="false"
       inverse_width="false"
       add_other_stroke_width="inkscape_1.0_and_up"
       crossing_points_vector="" />
    <inkscape:path-effect
       effect="knot"
       id="path-effect899"
       is_visible="true"
       lpeversion="1"
       switcher_size="5"
       interruption_width="3"
       prop_to_stroke_width="true"
       add_stroke_width="inkscape_1.0_and_up"
       both="false"
       inverse_width="false"
       add_other_stroke_width="inkscape_1.0_and_up"
       crossing_points_vector="" />
    <inkscape:path-effect
       effect="knot"
       id="path-effect884"
       is_visible="true"
       lpeversion="1"
       switcher_size="5"
       interruption_width="3"
       prop_to_stroke_width="true"
       add_stroke_width="inkscape_1.0_and_up"
       both="false"
       inverse_width="false"
       add_other_stroke_width="inkscape_1.0_and_up"
       crossing_points_vector="189.17067 | 222.81594 | 0 | 0 | 0 | 5 | 0.35127466 | 4.4747353 | 1 | 200.76156 | 232.15027 | 0 | 0 | 1 | 8 | 0.82251572 | 6.328668 | 1 | 198.80879 | 214.10166 | 0 | 0 | 3 | 6 | 2.3721267 | 4.8650116 | 1 | 211.25509 | 224.6067 | 0 | 0 | 2 | 7 | 2.1113994 | 6.0827831 | -1 | 176.08744 | 222.40323 | 0 | 0 | 4 | 9 | 3.3313182 | 7.5461948 | 1" />
    <inkscape:path-effect
       effect="knot"
       id="path-effect833"
       is_visible="true"
       lpeversion="1"
       switcher_size="5"
       interruption_width="3"
       prop_to_stroke_width="true"
       add_stroke_width="inkscape_1.0_and_up"
       both="false"
       inverse_width="false"
       add_other_stroke_width="inkscape_1.0_and_up"
       crossing_points_vector="" />
    <inkscape:path-effect
       effect="knot"
       id="path-effect77"
       is_visible="true"
       lpeversion="1"
       switcher_size="15"
       interruption_width="3"
       prop_to_stroke_width="true"
       add_stroke_width="inkscape_1.0_and_up"
       both="false"
       inverse_width="false"
       add_other_stroke_width="inkscape_1.0_and_up"
       crossing_points_vector="193.64282 | 270.60054 | 0 | 1 | 1 | 0 | 0.66848152 | 0.99563354 | 1 | 179.23475 | 258.92094 | 0 | 1 | 0 | 1 | 0.0086872259 | 1.6944482 | 1" />
  </defs>
  <sodipodi:namedview
     id="base"
     pagecolor="#ffffff"
     bordercolor="#666666"
     borderopacity="1.0"
     inkscape:pageopacity="0.0"
     inkscape:pageshadow="2"
     inkscape:zoom="0.7027995"
     inkscape:cx="521.48587"
     inkscape:cy="262.34367"
     inkscape:document-units="mm"
     inkscape:current-layer="layer1"
     showgrid="false"
     showborder="true"
     width="200mm"
     showguides="true"
     inkscape:guide-bbox="true"
     inkscape:window-width="896"
     inkscape:window-height="829"
     inkscape:window-x="4"
     inkscape:window-y="4"
     inkscape:window-maximized="1"
     inkscape:document-rotation="0"
     inkscape:snap-global="false">
    <inkscape:grid
       type="xygrid"
       id="grid815"
       units="mm"
       spacingx="10"
       spacingy="10"
       empspacing="4"
       dotted="false" />
  </sodipodi:namedview>
  <metadata
     id="metadata5">
    <rdf:RDF>
      <cc:Work
         rdf:about="">
        <dc:format>image/svg+xml</dc:format>
        <dc:type
           rdf:resource="http://purl.org/dc/dcmitype/StillImage" />
        <dc:title />
      </cc:Work>
    </rdf:RDF>
  </metadata>
  <g
     inkscape:label="Layer 1"
     inkscape:groupmode="layer"
     id="layer1"
     transform="translate(0,-177)">
    <path
       style="fill:none;stroke:#000000;stroke-width:1;stroke-linecap:butt;stroke-linejoin:miter;stroke-miterlimit:4;stroke-dasharray:none;stroke-opacity:1"
       d="m 54.956859,221.45956 c -10.774557,6.72858 -23.13303,11.59978 -23.878908,-0.48659 0,-8.30418 -0.94272,-12.80071 5.45944,-12.80072 1.903674,0 4.256787,0.8987 6.757287,2.31014 m 2.695963,1.67354 c 5.157757,3.46789 10.479109,8.45456 13.51389,11.82927 9.02655,10.0377 17.40536,-0.284 11.10103,-6.58835 -0.807829,-1.01359 -1.753722,-2.09765 -2.809337,-3.22069 m -2.111945,-2.15452 C 53.60725,200.17609 31.938541,186.32569 30.890611,204.03225 c -3e-6,1.43129 0.06337,2.72282 0.185279,3.88096 m 1.292654,5.19416 c 0.985964,2.0376 2.421755,2.96896 4.174047,2.96897 2.824039,0 9.576564,-5.64877 16.661564,-12.43087 m 2.196441,-2.12731 c 0.802898,-0.78624 1.605312,-1.58099 2.402075,-2.37775 8.20633,-8.20631 22.89099,0.45188 11.29882,12.04406 -2.362733,1.97063 -6.667988,5.35774 -11.556798,8.60632"
       id="path831"
       sodipodi:nodetypes="zscczsccz"
       inkscape:path-effect="#path-effect833"
       inkscape:original-d="m 36.537391,208.17225 c 6.40218,0 17.8876,10.16445 22.96714,15.81295 9.02655,10.0377 17.40536,-0.284 11.10103,-6.58835 -9.56732,-12.00415 -38.5,-33.89325 -39.71495,-13.3646 -2e-5,8.46796 2.21835,12.04408 5.65198,12.04409 3.43365,0 12.67489,-8.35073 21.26008,-16.93593 8.20633,-8.20631 22.89099,0.45188 11.29882,12.04406 -7.81308,6.51646 -36.86745,28.52204 -38.02354,9.7885 0,-8.30418 -0.94272,-12.80071 5.45944,-12.80072 z" />
    <ellipse
       style="fill:#000000;fill-opacity:0.12;stroke:none;stroke-width:0.265192;stroke-miterlimit:4;stroke-dasharray:none;stroke-opacity:1;marker-start:none;marker-end:none"
       id="path912-7-6"
       cx="69.054405"
       cy="213.23863"
       rx="7.595623"
       ry="7.227704" />
    <path
       style="fill:#000000;fill-opacity:1;stroke:#000000;stroke-width:0.0620937px;stroke-linecap:butt;stroke-linejoin:miter;stroke-opacity:1"
       d="m 66.706511,209.58712 5.3482,-2.37772 -0.69451,5.85467 -4.65367,-3.47696"
       id="path1206-35"
       sodipodi:nodetypes="cccc" />
    <path
       style="fill:#000000;fill-opacity:1;stroke:#000000;stroke-width:0.0620937px;stroke-linecap:butt;stroke-linejoin:miter;stroke-opacity:1"
       d="m 66.762241,217.21627 4.55058,-3.68089 0.84445,5.83496 -5.39501,-2.15407"
       id="path1206-35-3"
       sodipodi:nodetypes="cccc" />
    <path
       style="fill:none;stroke:#000000;stroke-width:1;stroke-linecap:butt;stroke-linejoin:miter;stroke-miterlimit:4;stroke-dasharray:none;stroke-opacity:1"
       d="m 118.51003,222.44134 c -10.77456,6.72858 -23.133033,11.59978 -23.878911,-0.48659 0,-8.30418 -0.94272,-12.80071 5.459441,-12.80072 1.90367,0 4.25679,0.8987 6.75729,2.31014 m 2.69596,1.67354 c 5.15776,3.46789 10.47911,8.45456 13.51389,11.82927 9.02656,10.0377 17.40536,-0.284 11.10103,-6.58835 -9.56732,-12.00415 -38.500001,-33.89325 -39.714951,-13.3646 -3e-6,1.43129 0.06337,2.72282 0.185279,3.88096 m 1.292654,5.19416 c 0.985964,2.0376 2.421755,2.96896 4.174048,2.96897 2.82404,0 9.57656,-5.64877 16.66157,-12.43086 m 2.19644,-2.12732 c 0.8029,-0.78624 1.60531,-1.58098 2.40208,-2.37775 8.20633,-8.20631 22.89099,0.45188 11.29882,12.04406 -0.34963,0.29161 -0.74181,0.61424 -1.17211,0.96285 m -2.36598,1.87208 c -2.24508,1.73714 -5.02229,3.78029 -8.01871,5.7714"
       id="path831-6"
       sodipodi:nodetypes="zscczsccz"
       inkscape:path-effect="#path-effect884"
       inkscape:original-d="m 100.09056,209.15403 c 6.40218,0 17.8876,10.16445 22.96714,15.81295 9.02656,10.0377 17.40536,-0.284 11.10103,-6.58835 -9.56732,-12.00415 -38.500001,-33.89325 -39.714951,-13.3646 -2e-5,8.46796 2.21835,12.04408 5.651981,12.04409 3.43365,0 12.67489,-8.35073 21.26009,-16.93593 8.20633,-8.20631 22.89099,0.45188 11.29882,12.04406 -7.81308,6.51646 -36.867461,28.52204 -38.023551,9.7885 0,-8.30418 -0.94272,-12.80071 5.459441,-12.80072 z" />
    <ellipse
       style="fill:#000000;fill-opacity:0.12;stroke:none;stroke-width:0.265192;stroke-miterlimit:4;stroke-dasharray:none;stroke-opacity:1;marker-start:none;marker-end:none"
       id="path912-7-6-7"
       cx="132.6076"
       cy="214.22041"
       rx="7.595623"
       ry="7.227704" />
    <path
       style="fill:#000000;fill-opacity:1;stroke:#000000;stroke-width:0.0620937px;stroke-linecap:butt;stroke-linejoin:miter;stroke-opacity:1"
       d="m 130.25969,210.5689 5.3482,-2.37772 -0.69451,5.85467 -4.65368,-3.47696"
       id="path1206-35-5"
       sodipodi:nodetypes="cccc" />
    <path
       style="fill:#000000;fill-opacity:1;stroke:#000000;stroke-width:0.0620937px;stroke-linecap:butt;stroke-linejoin:miter;stroke-opacity:1"
       d="m 128.62918,254.53264 4.55057,-3.68089 0.84445,5.83496 -5.395,-2.15407"
       id="path1206-35-3-3"
       sodipodi:nodetypes="cccc" />
    <path
       style="fill:none;stroke:#000000;stroke-width:1;stroke-linecap:butt;stroke-linejoin:miter;stroke-miterlimit:4;stroke-dasharray:none;stroke-opacity:1"
       d="m 182.24626,222.83558 c -9.92825,5.29959 -23.38774,10.36866 -24.06892,-0.66939 0,-8.30418 -0.94272,-12.80071 5.45944,-12.80072 1.90367,0 4.25679,0.8987 6.75729,2.31014 m 2.69596,1.67354 c 5.15776,3.46789 10.47911,8.45456 13.51389,11.82927 9.02655,10.0377 18.46891,-1.48359 12.16458,-7.78794 -1.0385,-1.30301 -4.3289,-2.03621 -6.05956,-0.86635 -0.50698,0.3427 -3.58967,2.43675 -7.72203,4.79663 m -3.84939,-17.28408 c 1.25548,-1.21279 2.51694,-2.45544 3.76454,-3.70305 8.20633,-8.20631 23.15964,1.91389 11.56747,13.50607 -0.81123,0.96483 -4.12962,0.27311 -5.09278,-0.57696 -0.96316,-0.85007 -32.30368,-26.33761 -33.38675,-8.03727 0,1.43129 0.0634,2.72282 0.18528,3.88096 m 1.29265,5.19416 c 0.98597,2.0376 2.42176,2.96896 4.17405,2.96897 2.63651,0 8.69708,-4.92346 15.25557,-11.09607"
       id="path831-5"
       sodipodi:nodetypes="czsczcczsczc"
       inkscape:path-effect="#path-effect937"
       inkscape:original-d="m 158.17734,222.16619 c 0,-8.30418 -0.94272,-12.80071 5.45944,-12.80072 6.40218,0 17.8876,10.16445 22.96714,15.81295 9.02655,10.0377 18.46891,-1.48359 12.16458,-7.78794 -1.0385,-1.30301 -4.3289,-2.03621 -6.05956,-0.86635 -1.73066,1.16986 -33.47594,22.74818 -34.5316,5.64206 z M 157.99,205.22547 c -2e-5,8.46796 2.21835,12.04408 5.65198,12.04409 3.43365,0 12.67489,-8.35073 21.26008,-16.93593 8.20633,-8.20631 23.15964,1.91389 11.56747,13.50607 -0.81123,0.96483 -4.12962,0.27311 -5.09278,-0.57696 -0.96316,-0.85007 -32.30368,-26.33761 -33.38675,-8.03727 z" />
    <ellipse
       style="fill:#000000;fill-opacity:0.12;stroke:none;stroke-width:0.265192;stroke-miterlimit:4;stroke-dasharray:none;stroke-opacity:1;marker-start:none;marker-end:none"
       id="path912-7-6-7-1"
       cx="197.26205"
       cy="214.64951"
       rx="7.595623"
       ry="7.227704" />
    <path
       style="fill:#000000;fill-opacity:1;stroke:#000000;stroke-width:0.0620937px;stroke-linecap:butt;stroke-linejoin:miter;stroke-opacity:1"
       d="m 195.50034,218.4319 4.55057,-3.68089 0.84445,5.83496 -5.395,-2.15407"
       id="path1206-35-3-3-2"
       sodipodi:nodetypes="cccc" />
    <path
       style="fill:#000000;fill-opacity:1;stroke:#000000;stroke-width:0.0620937px;stroke-linecap:butt;stroke-linejoin:miter;stroke-opacity:1"
       d="m 194.6323,211.68224 5.3482,-2.37769 -0.69453,5.85469 -4.65365,-3.477"
       id="path1206-35-3-3-7"
       sodipodi:nodetypes="cccc" />
    <path
       style="fill:none;stroke:#000000;stroke-width:1;stroke-linecap:butt;stroke-linejoin:miter;stroke-miterlimit:4;stroke-dasharray:none;stroke-opacity:1"
       d="m 135.4205,271.55605 c 0.22302,2.1678 0.0816,4.38831 0.0587,6.10982 0,11.27277 -34.4181,12.50756 -34.4481,2.45314 0,-4.9072 -2.264671,-16.75756 9.22223,-16.75756 4.14595,0 6.39431,1.37246 7.93194,3.12665 m 2.00495,2.93365 c 1.39361,2.34482 2.65073,4.47523 6.06674,4.47523 10.54434,0 8.66015,-9.27035 8.66015,-13.54778 -0.91036,-15.62926 -33.23312,-13.18846 -33.88599,-2.44831 -1e-5,1.14201 -0.58405,4.7116 0.0475,8.19021 m 1.60993,4.20415 c 1.4232,2.09963 3.8554,3.60657 7.94989,3.60657 12.28118,0 4.22142,-10.34759 16.36273,-10.34759 3.30582,0 5.34804,1.08381 6.60221,2.70808"
       id="path831-6-0"
       sodipodi:nodetypes="zscczsccz"
       inkscape:path-effect="#path-effect967"
       inkscape:original-d="m 110.25336,263.36145 c 11.48691,0 8.4071,10.53553 16.00363,10.53553 10.54434,0 8.66015,-9.27035 8.66015,-13.54778 -0.91036,-15.62926 -33.23312,-13.18846 -33.88599,-2.44831 -2e-5,2.44351 -2.673831,16.00093 9.60734,16.00093 12.28118,0 4.22142,-10.34759 16.36273,-10.34759 9.59915,0 8.54419,9.13823 8.47801,14.11164 0,11.27277 -34.4181,12.50756 -34.4481,2.45314 0,-4.9072 -2.264671,-16.75756 9.22223,-16.75756 z" />
    <path
       style="fill:none;stroke:#000000;stroke-width:1;stroke-linecap:butt;stroke-linejoin:miter;stroke-miterlimit:4;stroke-dasharray:none;stroke-opacity:1"
       d="m 189.36596,269.37468 c 2.05922,-2.1137 3.46888,-5.49579 3.46888,-10.1394 0,-17.22409 -19.39353,-18.58281 -19.39353,-0.74564 0,10.91938 7.26744,15.20378 12.90471,12.93354 m -14.37106,-10.92147 c -1.60885,2.1408 -2.66549,5.33912 -2.66549,9.6529 0,18.07224 18.54534,17.07877 18.54534,0.25604 0,-10.67627 -7.46931,-15.18339 -12.92739,-12.43235"
       id="path10-3-7-5-7-5-6"
       sodipodi:nodetypes="zzzzzz"
       inkscape:path-effect="#path-effect77"
       inkscape:original-d="m 173.44131,258.48964 c 0,17.83757 19.39353,17.96935 19.39353,0.74564 0,-17.22409 -19.39353,-18.58281 -19.39353,-0.74564 z m -4.13184,11.66497 c 0,18.07224 18.54534,17.07877 18.54534,0.25604 0,-16.82273 -18.54534,-18.32828 -18.54534,-0.25604 z" />
    <path
       style="fill:#000000;fill-opacity:1;stroke:#000000;stroke-width:0.0620937px;stroke-linecap:butt;stroke-linejoin:miter;stroke-opacity:1"
       d="m 173.59674,247.46047 5.6866,-1.38536 -1.72795,5.63684 -3.95865,-4.25149"
       id="path1206-9-5-6"
       sodipodi:nodetypes="cccc" />
    <path
       style="fill:#000000;fill-opacity:1;stroke:#000000;stroke-width:0.0620937px;stroke-linecap:butt;stroke-linejoin:miter;stroke-opacity:1"
       d="m 166.19904,267.81882 4.23205,-4.04306 1.32198,5.74562 -5.55404,-1.70257"
       id="path1206-9-5-2"
       sodipodi:nodetypes="cccc" />
    <text
       style="font-size:2.64583px;font-family:monospace;-inkscape-font-specification:'monospace, Normal';fill:#000000;fill-opacity:1;stroke:none;stroke-width:0.264583"
       xml:space="preserve"
       id="text91-2"
       y="-181.86252"
       x="228.138"
       transform="rotate(90)"><tspan
         sodipodi:role="line"
         id="tspan89-9"
         x="228.138"
         y="-181.86252"
         style="stroke-width:0.264583">$\approx$</tspan></text>
    <path
       style="fill:#000000;fill-opacity:1;stroke:#000000;stroke-width:0.0620937px;stroke-linecap:butt;stroke-linejoin:miter;stroke-opacity:1"
       d="m 130.54073,218.57154 4.55057,-3.68092 0.84445,5.83493 -5.39501,-2.15403"
       id="path1206-35-5-0"
       sodipodi:nodetypes="cccc" />
  </g>
</svg>
